<?xml version="1.0" encoding="iso-8859-1"?>
<!-- Generator: Adobe Illustrator 19.0.0, SVG Export Plug-In . SVG Version: 6.00 Build 0)  -->
<svg version="1.1" id="Capa_1" xmlns="http://www.w3.org/2000/svg" xmlns:xlink="http://www.w3.org/1999/xlink" x="0px" y="0px"
	 viewBox="0 0 434.853 434.853" style="enable-background:new 0 0 434.853 434.853;" xml:space="preserve">
<g>
	<g>
		<path d="M258.853,111.027c-0.8-3.2-4-5.6-8-5.6h-112.8c-3.2,0-6.4,2.4-7.2,5.6c-1.6,4-32,98.4,3.2,146.4
			c12,16,29.6,24.8,52.8,26.4v88h-19.2c-4.8,0-8,3.2-8,8s3.2,8,8,8h54.4c4.8,0,8-3.2,8-8s-3.2-8-8-8h-19.2v-88
			c23.2-1.6,40.8-10.4,52.8-26.4C290.853,209.427,259.653,115.027,258.853,111.027z M144.453,121.427h100.8
			c2.4,7.2,5.6,22.4,8.8,39.2h-118.4C138.053,143.827,142.053,129.427,144.453,121.427z M242.853,247.827c-10.4,13.6-25.6,20-48,20
			c-22.4,0-37.6-6.4-48-20c-13.6-18.4-15.2-45.6-12.8-71.2h121.6C258.053,202.227,256.453,229.427,242.853,247.827z"/>
	</g>
</g>
<g>
	<g>
		<path d="M434.853,160.627c0-2.4,0-4.8-1.6-6.4c-1.6-1.6-4-2.4-6.4-2.4h-139.2c-2.4,0-4.8,0.8-6.4,2.4c-1.6,1.6-2.4,4-1.6,6.4
			c0,1.6,20,139.2,14.4,219.2c0,2.4,0.8,4,2.4,5.6c1.6,1.6,4,2.4,5.6,2.4h110.4c2.4,0,4-0.8,5.6-2.4c1.6-1.6,2.4-4,2.4-5.6
			C414.853,299.027,434.853,161.427,434.853,160.627z M310.053,371.827c0-8.8,0.8-17.6,0.8-27.2h92.8c0,9.6,0,18.4,0.8,27.2H310.053
			z M404.453,328.627h-94.4c-1.6-64-10.4-136-13.6-161.6h121.6C414.853,192.627,406.053,264.627,404.453,328.627z"/>
	</g>
</g>
<g>
	<g>
		<path d="M83.653,371.827h-20v-91.2c9.6-1.6,17.6-6.4,24-14.4c40.8-48.8,12.8-205.6,11.2-212.8c-0.8-4-4-6.4-8-6.4h-72
			c-4,0-7.2,2.4-8,6.4c-1.6,6.4-29.6,164,11.2,212.8c6.4,8,15.2,12.8,24,14.4v91.2h-18.4c-4.8,0-8,3.2-8,8s3.2,8,8,8h56v0
			c4.8,0,8-3.2,8-8S88.453,371.827,83.653,371.827z M26.053,63.027h58.4c2.4,15.2,5.6,37.6,7.2,61.6h-72.8
			C21.253,100.627,23.653,78.227,26.053,63.027z M34.853,255.827c-16.8-20-19.2-68.8-16.8-115.2h74.4c2.4,46.4,0,95.2-17.6,115.2
			c-5.6,6.4-12,9.6-20,9.6S40.453,262.227,34.853,255.827z"/>
	</g>
</g>
<g>
</g>
<g>
</g>
<g>
</g>
<g>
</g>
<g>
</g>
<g>
</g>
<g>
</g>
<g>
</g>
<g>
</g>
<g>
</g>
<g>
</g>
<g>
</g>
<g>
</g>
<g>
</g>
<g>
</g>
</svg>
