<svg width="100" height="100" xmlns="http://www.w3.org/2000/svg">
 <g>
  <title>background</title>
  <rect fill="none" id="canvas_background" height="402" width="582" y="-1" x="-1"/>
 </g>
 <g>
  <title>Layer 1</title>
  <defs>
   <rect width="100" id="SVGID_1_" height="100"/>
  </defs>
  <path fill="#ffffff" id="svg_2" d="m84.803,46.564c5.055,-0.417 8.483,-2.715 9.803,-5.833c-1.824,1.12 -7.483,2.341 -10.609,1.178c-0.153,-0.734 -0.324,-1.432 -0.492,-2.062c-2.382,-8.746 -10.537,-15.792 -19.082,-14.941c0.691,-0.279 1.393,-0.539 2.092,-0.772c0.94,-0.337 6.459,-1.235 5.59,-3.183c-0.732,-1.713 -7.475,1.295 -8.744,1.688c1.676,-0.63 4.447,-1.714 4.744,-3.64c-2.567,0.352 -5.088,1.566 -7.035,3.331c0.703,-0.757 1.236,-1.679 1.35,-2.672c-6.848,4.375 -10.848,13.195 -14.085,21.75c-2.542,-2.463 -4.795,-4.403 -6.816,-5.48c-5.67,-3.041 -12.449,-6.213 -23.091,-10.164c-0.327,3.521 1.741,8.203 7.7,11.316c-1.291,-0.173 -3.652,0.213 -5.54,0.665c0.769,4.034 3.28,7.357 10.079,8.964c-3.107,0.205 -4.713,0.912 -6.168,2.436c1.415,2.805 4.868,6.107 11.08,5.429c-6.906,2.977 -2.816,8.49 2.804,7.667c-9.59,9.902 -24.704,9.175 -33.383,0.893c22.661,30.88 71.921,18.264 79.262,-11.481c5.5,0.048 8.733,-1.904 10.738,-4.056c-3.169,0.537 -7.762,-0.019 -10.197,-1.033"/>
 </g>
</svg>