<?xml version="1.0" encoding="iso-8859-1"?>
<!-- Generator: Adobe Illustrator 19.0.0, SVG Export Plug-In . SVG Version: 6.00 Build 0)  -->
<svg version="1.1" id="Layer_1" xmlns="http://www.w3.org/2000/svg" xmlns:xlink="http://www.w3.org/1999/xlink" x="0px" y="0px"
	 viewBox="0 0 511.999 511.999" style="enable-background:new 0 0 511.999 511.999;" xml:space="preserve">
<path style="fill:#E4EAF5;" d="M329.175,269.215c32.161-70.497,19.526-170.705,19.526-170.705V65.383H164.928v33.128
	c0,0-12.635,100.208,19.526,170.705c34.458,78.536-25.269,135.038,0,215.438h144.72
	C354.443,404.253,294.717,347.752,329.175,269.215z"/>
<path style="fill:#BCC7D9;" d="M317.967,472.946H195.661c-21.568,0-39.051,17.485-39.051,39.051l0,0h200.408l0,0
	C357.018,490.431,339.535,472.946,317.967,472.946z"/>
<path style="fill:#FFAC55;" d="M213.381,449.535c-1.289-20.042,3.006-39.468,7.765-60.989c8.485-38.367,18.1-81.855-4.533-133.44
	l-0.208-0.466c-16.665-36.531-19.574-86.638-18.707-121.01h118.156c0.89,31.962-1.109,82.602-18.631,121.01l-0.208,0.465
	c-22.634,51.587-13.019,95.075-4.534,133.443c4.757,21.521,9.054,40.945,7.766,60.988H213.381z"/>
<path style="opacity:0.2;fill:#171D26;enable-background:new    ;" d="M248.635,475.445c-18.237-75.585,35.67-130.727,2.544-206.229
	c-32.161-70.497-19.526-170.705-19.526-170.705V65.383h-66.726v33.128c0,0-12.635,100.208,19.526,170.705
	c33.127,75.503-20.781,130.644-2.544,206.229c-14.782,5.564-25.301,19.828-25.301,36.554l0,0h66.726l0,0
	C223.336,495.272,233.854,481.007,248.635,475.445z"/>
<path style="fill:#FEFFCC;" d="M361.195,52.468c-4.056-1.859-27.43-3.212-27.43-3.212c-1.888-6.492-6.468-12.163-13.096-15.201
	c-8.707-3.991-18.538-2.34-25.447,3.392c0.162-1.215,0.253-2.452,0.253-3.712c0-15.456-12.529-27.986-27.986-27.986
	c-9.487,0-17.865,4.725-22.926,11.945c-4.057-5.868-9.69-10.759-16.646-13.948c-20.622-9.453-45.003-0.398-54.457,20.224
	c-2.762,6.025-3.933,12.371-3.709,18.572c-1.569-0.27-3.178-0.419-4.824-0.419c-15.572,0-28.195,12.623-28.195,28.195
	s12.623,28.195,28.195,28.195h0.001h183.77v-0.146c9.987,1.018,19.952-4.293,24.368-13.926
	C378.617,72.331,373.302,58.017,361.195,52.468z"/>
<g>
</g>
<g>
</g>
<g>
</g>
<g>
</g>
<g>
</g>
<g>
</g>
<g>
</g>
<g>
</g>
<g>
</g>
<g>
</g>
<g>
</g>
<g>
</g>
<g>
</g>
<g>
</g>
<g>
</g>
</svg>
