<?xml version="1.0" encoding="iso-8859-1"?>
<!-- Generator: Adobe Illustrator 19.0.0, SVG Export Plug-In . SVG Version: 6.00 Build 0)  -->
<svg version="1.1" id="Layer_1" xmlns="http://www.w3.org/2000/svg" xmlns:xlink="http://www.w3.org/1999/xlink" x="0px" y="0px"
	 viewBox="0 0 512.006 512.006" style="enable-background:new 0 0 512.006 512.006;" xml:space="preserve">
<path style="fill:#B8703F;" d="M427.969,85.759v-0.048c0,0-31.802-44.119-172.88-44.119S82.21,85.711,82.21,85.711
	C36.807,85.711,0,161.954,0,256.004s36.807,170.291,82.21,170.291c0,0,31.802,44.119,172.88,44.119s172.88-44.119,172.88-44.119
	v-0.048V85.759H427.969z"/>
<path style="opacity:0.1;fill:#171D26;enable-background:new    ;" d="M43.471,256.004c0-72.179,17.145-136.056,43.458-175.13
	c-3.368,2.967-4.719,4.838-4.719,4.838C36.807,85.711,0,161.954,0,256.004s36.807,170.291,82.21,170.291
	c0,0,1.352,1.871,4.719,4.838C60.617,392.06,43.471,328.181,43.471,256.004z"/>
<g>
	<path style="fill:#E6AC5C;" d="M7.897,183.107c0.438-1.911,0.892-3.803,1.363-5.673C8.789,179.305,8.334,181.196,7.897,183.107z"/>
	<polygon style="fill:#E6AC5C;" points="0,256.001 0,256.002 0,256.002 	"/>
	<path style="fill:#E6AC5C;" d="M6.603,189.044c0.01,0.002,0.019,0.002,0.029,0.005c0.4-1.934,0.793-3.874,1.226-5.771
		C7.423,185.181,7.004,187.103,6.603,189.044z"/>
	<path style="fill:#E6AC5C;" d="M9.261,334.576c-0.471-1.873-0.926-3.766-1.364-5.678C8.334,330.81,8.789,332.702,9.261,334.576z"/>
</g>
<g>
	<path style="fill:#FFAC55;" d="M287.929,114.237c4.932-16.128,10.744-31.211,17.391-44.98c4.281-8.867,8.804-16.933,13.503-24.167
		c-17.397-2.076-37.411-3.364-60.356-3.48c-0.674,1.344-1.349,2.687-2.011,4.058c-9.538,19.758-17.576,41.719-24.006,65.289
		C251.284,111.078,269.864,112.19,287.929,114.237z"/>
	<path style="fill:#FFAC55;" d="M167.256,114.537c4.951-16.241,10.797-31.426,17.485-45.28c4.441-9.198,9.14-17.544,14.027-24.982
		c-29.29,2.993-51.667,8.169-68.582,13.874c-8.873,20.536-16.243,43.129-21.995,67.203
		C126.883,120.608,146.691,116.973,167.256,114.537z"/>
</g>
<path style="fill:#593535;" d="M423.41,173.568c1.436,0.839,3.007,1.229,4.559,1.228v-19.44
	c-50.926-28.275-123.042-44.423-198.96-44.423c-86.159,0-165.985,20.542-216.677,55.343c-2.173,7.246-4.092,14.851-5.729,22.768
	c0.648,0.143,1.309,0.218,1.973,0.218c1.945,0,3.904-0.626,5.556-1.915c46.803-36.522,127.131-58.327,214.877-58.327
	C304.112,129.02,374.968,145.257,423.41,173.568z"/>
<g>
	<path style="fill:#FFAC55;" d="M268.393,246.959c0.646-40.901,5.67-80.057,14.602-115.089c-17.567-1.875-35.648-2.851-53.987-2.851
		c-0.37,0-0.738,0.008-1.107,0.008c-8.449,36.649-13.172,76.625-13.775,117.931H268.393z"/>
	<path style="fill:#FFAC55;" d="M147.814,246.959c0.638-40.309,5.53-78.918,14.222-113.561
		c-20.395,2.719-39.905,6.668-58.136,11.742c-6.3,32.133-9.832,66.488-10.349,101.819H147.814z"/>
</g>
<path style="fill:#593535;" d="M427.969,265.047V246.96l0,0H0.116C0.04,249.954,0,252.969,0,256.004c0,3.035,0.04,6.048,0.116,9.043
	H427.969L427.969,265.047z"/>
<path style="opacity:0.1;fill:#171D26;enable-background:new    ;" d="M346.684,123.531
	c-17.306,35.847-26.836,82.894-26.836,132.471s9.531,96.624,26.836,132.471c13.685,28.345,31.467,48.134,51.7,58.109
	c22.453-10.408,29.585-20.289,29.585-20.289v-69.645v-19.442c-0.775,0-1.557,0.096-2.324,0.299c0.767-0.203,1.547-0.299,2.324-0.299
	v-72.162v-18.087v-72.163c-1.358,0.001-2.725-0.318-4.009-0.955c1.284,0.637,2.652,0.955,4.009,0.955v-19.44V85.711
	c0,0-7.132-9.88-29.585-20.29C378.15,75.397,360.368,95.186,346.684,123.531z"/>
<g>
	<path style="fill:#FFAC55;" d="M162.033,378.608c-8.689-34.643-13.578-73.253-14.215-113.561H93.551
		c0.516,35.332,4.053,69.686,10.352,101.82C122.133,371.94,141.64,375.889,162.033,378.608z"/>
	<path style="fill:#FFAC55;" d="M167.267,397.47c-20.564-2.435-40.373-6.07-59.064-10.814c5.749,24.07,13.109,46.667,21.983,67.199
		c16.916,5.705,39.293,10.881,68.583,13.874c-4.888-7.437-9.587-15.784-14.028-24.982
		C178.053,428.897,172.216,413.709,167.267,397.47z"/>
	<path style="fill:#FFAC55;" d="M229.009,382.986c18.341,0,36.426-0.975,53.996-2.852c-8.931-35.034-13.962-74.186-14.608-115.089
		h-54.267c0.603,41.309,5.337,81.279,13.785,117.932C228.281,382.979,228.643,382.986,229.009,382.986z"/>
	<path style="fill:#FFAC55;" d="M287.936,397.769c-18.065,2.046-36.647,3.16-55.481,3.281c6.429,23.569,14.462,45.532,24,65.289
		c0.662,1.372,1.338,2.713,2.012,4.058c22.945-0.116,42.959-1.404,60.356-3.48c-4.699-7.234-9.222-15.299-13.503-24.167
		C298.674,428.981,292.867,413.894,287.936,397.769z"/>
</g>
<path style="fill:#593535;" d="M12.332,345.731c50.693,34.802,130.519,55.344,216.677,55.344c75.919,0,148.035-16.148,198.96-44.423
	v-19.442c-1.552-0.001-3.123,0.388-4.559,1.228c-48.441,28.312-119.298,44.549-194.401,44.549
	c-87.745,0-168.073-21.804-214.877-58.328c-2.215-1.729-4.985-2.262-7.529-1.697C8.239,330.879,10.158,338.484,12.332,345.731z"/>
<ellipse style="fill:#B8703F;" cx="429.795" cy="256.006" rx="82.211" ry="170.295"/>
<path style="fill:#FFAC55;" d="M429.79,390.121c-4.387,0-15.203-7.99-25.553-29.43c-13.015-26.96-20.48-65.119-20.48-104.687
	s7.465-77.726,20.48-104.687c10.351-21.44,21.168-29.43,25.553-29.43c4.388,0,15.204,7.99,25.554,29.43
	c13.015,26.962,20.48,65.119,20.48,104.687s-7.465,77.726-20.48,104.687C444.994,382.131,434.178,390.121,429.79,390.121z"/>
<rect x="448.931" y="234.47" style="fill:#5B5D6E;" width="29.765" height="52.591"/>
<g>
	<path style="fill:#C7CFE2;" d="M493.637,359.524c-9.989,0-18.087-8.098-18.087-18.087v-22.99c0-6.643-5.403-12.046-12.046-12.046
		h-29.502c-9.989,0-18.087-8.098-18.087-18.087s8.098-18.087,18.087-18.087h29.502c26.589,0,48.22,21.631,48.22,48.22v22.99
		C511.724,351.426,503.626,359.524,493.637,359.524z"/>
	<path style="fill:#C7CFE2;" d="M488.528,207.072h-49.417c-9.904,0-17.934,8.029-17.934,17.934s8.029,17.934,17.934,17.934h49.417
		c9.904,0,17.934-8.029,17.934-17.934C506.463,215.102,498.432,207.072,488.528,207.072z"/>
</g>
<g>
</g>
<g>
</g>
<g>
</g>
<g>
</g>
<g>
</g>
<g>
</g>
<g>
</g>
<g>
</g>
<g>
</g>
<g>
</g>
<g>
</g>
<g>
</g>
<g>
</g>
<g>
</g>
<g>
</g>
</svg>
