<?xml version="1.0" encoding="iso-8859-1"?>
<!-- Generator: Adobe Illustrator 19.0.0, SVG Export Plug-In . SVG Version: 6.00 Build 0)  -->
<svg version="1.1" id="Layer_1" xmlns="http://www.w3.org/2000/svg" xmlns:xlink="http://www.w3.org/1999/xlink" x="0px" y="0px"
	 viewBox="0 0 512.001 512.001" style="enable-background:new 0 0 512.001 512.001;" xml:space="preserve">
<path style="fill:#E4EAF5;" d="M328.439,471.339h-11.447c-22.457,0-40.661-18.205-40.661-40.661V313.39l213.693-182.903H21.976
	L235.67,313.39v117.288c0,22.457-18.205,40.661-40.661,40.661h-11.447c-22.457,0-40.661,18.205-40.661,40.661l0,0h226.201l0,0
	C369.101,489.544,350.895,471.339,328.439,471.339z"/>
<polygon style="fill:#88A69F;" points="114.746,164.767 397.254,164.767 255.999,285.668 "/>
<path style="opacity:0.2;fill:#171D26;enable-background:new    ;" d="M253.264,471.339h11.447c9.956,0,19.071-3.583,26.14-9.524
	c-8.875-7.459-14.521-18.637-14.521-31.138V313.39l14.521-12.429L91.68,130.487H21.976L235.67,313.39v117.289
	c0,22.457-18.205,40.661-40.661,40.661h-11.447c-22.456,0-40.661,18.204-40.661,40.661l0,0h69.703l0,0
	C212.603,489.544,230.807,471.339,253.264,471.339z"/>
<ellipse transform="matrix(0.6613 -0.7502 0.7502 0.6613 -23.1567 266.3794)" style="fill:#93B350;" cx="283.378" cy="158.831" rx="39.76" ry="36.739"/>
<ellipse transform="matrix(0.6613 -0.7502 0.7502 0.6613 20.5903 279.825)" style="fill:#9DBF56;" cx="320.139" cy="117.113" rx="39.76" ry="36.739"/>
<ellipse transform="matrix(0.6613 -0.7502 0.7502 0.6613 64.3325 293.2929)" style="fill:#A7CC5C;" cx="356.923" cy="75.412" rx="39.76" ry="36.739"/>
<g>
	<path style="fill:#FFE669;" d="M383.188,54.137c-2.013,0-4.035-0.705-5.664-2.141c-3.549-3.13-3.891-8.546-0.761-12.096
		l32.613-36.997c3.13-3.548,8.546-3.892,12.096-0.761c3.549,3.13,3.891,8.546,0.761,12.096L389.62,51.234
		C387.926,53.155,385.563,54.137,383.188,54.137z"/>
	<path style="fill:#FFE669;" d="M224.463,234.198c-2.013,0-4.035-0.705-5.664-2.141c-3.549-3.13-3.891-8.546-0.761-12.096
		l32.613-36.997c3.129-3.548,8.545-3.891,12.096-0.761c3.549,3.13,3.891,8.546,0.761,12.096l-32.613,36.997
		C229.201,233.216,226.837,234.198,224.463,234.198z"/>
</g>
<g>
</g>
<g>
</g>
<g>
</g>
<g>
</g>
<g>
</g>
<g>
</g>
<g>
</g>
<g>
</g>
<g>
</g>
<g>
</g>
<g>
</g>
<g>
</g>
<g>
</g>
<g>
</g>
<g>
</g>
</svg>
