<?xml version="1.0" encoding="iso-8859-1"?>
<!-- Generator: Adobe Illustrator 19.0.0, SVG Export Plug-In . SVG Version: 6.00 Build 0)  -->
<svg version="1.1" id="Layer_1" xmlns="http://www.w3.org/2000/svg" xmlns:xlink="http://www.w3.org/1999/xlink" x="0px" y="0px"
	 viewBox="0 0 512 512" style="enable-background:new 0 0 512 512;" xml:space="preserve">
<path style="fill:#E4EAF5;" d="M403.324,0H108.676c0,0-231.628,369.862,125.307,373.438v50.49c0,24.321-19.716,44.036-44.036,44.036
	h-12.399c-24.32,0-44.036,19.716-44.036,44.036h244.977c0-24.321-19.716-44.036-44.036-44.036h-12.399
	c-24.32,0-44.036-19.715-44.036-44.036v-50.49C634.952,369.862,403.324,0,403.324,0z"/>
<path style="fill:#735642;" d="M71.883,218.703c-0.347,27.712,5.651,46.808,12.74,59.613c21.321,38.51,73.326,58.037,154.569,58.037
	h33.6c81.199,0,133.192-19.506,154.533-57.973c9.613-17.328,13.098-38.039,12.78-59.678H71.883V218.703z"/>
<path style="opacity:0.2;fill:#171D26;enable-background:new    ;" d="M264.174,467.964h12.399c8.322,0,16.103-2.31,22.741-6.321
	c-12.763-7.712-21.295-21.716-21.295-37.715v-50.49c7.353-0.074,14.434-0.318,21.295-0.695C-26.854,354.763,195.302,0,195.302,0
	h-86.627c0,0-231.628,369.862,125.307,373.438v50.49c0,24.321-19.716,44.036-44.036,44.036h-12.399
	c-24.32,0-44.036,19.716-44.036,44.036h86.627C220.138,487.68,239.855,467.964,264.174,467.964z"/>
<g>
</g>
<g>
</g>
<g>
</g>
<g>
</g>
<g>
</g>
<g>
</g>
<g>
</g>
<g>
</g>
<g>
</g>
<g>
</g>
<g>
</g>
<g>
</g>
<g>
</g>
<g>
</g>
<g>
</g>
</svg>
